<?xml version="1.0" encoding="UTF-8"?>
<svg id="_レイヤー_2" data-name="レイヤー 2" xmlns="http://www.w3.org/2000/svg" viewBox="0 0 266.45 37.57">
  <defs>
    <style>
      #layer {
        fill: none;
        stroke: #7c8686;
        stroke-linecap: round;
        stroke-linejoin: round;
        stroke-width: 2px;
        stroke-dasharray: 300;
        stroke-dashoffset: 300;
      }
    </style>
  </defs>
  <g id="layer">
    <path d="M11.48,1.48c2.81,10.78-1.53,23.06-10.48,29.68">
        <animate id="stroke0" attributeName="stroke-dashoffset" values="300;0" begin="0;" dur="1s" fill="freeze" />
    </path>
    <path d="M28.51,1C18.94,4.97,9.83,10.01,1.38,16c7.66,4.57,14.77,10.04,21.16,16.26">
        <animate id="stroke1" attributeName="stroke-dashoffset" values="300;0" begin="stroke0.end" dur="1s" fill="freeze" />
    </path>
    <path d="M27.69,23.95c1.27-3.26,5.01-5.34,8.44-4.7,2.87,4.32-.43,11.19-5.59,11.65-.94-3.19-1.49-7.45,1.4-9.11,1.86-1.07,4.22-.37,6.14.59s3.84,2.19,5.99,2.16,4.38-2.16,3.55-4.14c1.78,1.72,2.26,4.64,1.13,6.84s-3.78,3.51-6.22,3.07c5.84-4.04,12.57-6.78,19.58-7.96.3,2.22.59,4.44.89,6.66,2.01-3.17,4.74-5.88,7.93-7.86-2,2.58-2.7,6.1-1.85,9.25,10.55-4.3,19.02-13.41,22.55-24.24l-14.23,23.74c4.52-3.49,9.71-6.1,15.2-7.65-3.14.13-6.08,2.44-6.94,5.46,5.04,1.16,10.21,2.33,15.33,1.58s10.22-3.88,11.77-8.81c-2.85.3-5.85.65-8.17,2.34s-3.59,5.18-1.9,7.5c1.57,2.16,4.93,2.25,7.25.93s3.84-3.67,5.26-5.92">
        <animate id="stroke2" attributeName="stroke-dashoffset" values="300;0" begin="stroke1.end" dur="2.5s" fill="freeze" />
    </path>
    <path d="M138.62,9.68l16.69-7.44c-6.01,12.89-14.51,24.62-24.9,34.33">
        <animate id="stroke3" attributeName="stroke-dashoffset" values="300;0" begin="stroke2.end" dur="1s" fill="freeze" />
    </path>
    <path d="M131.11,24.13c5.43-5.47,12.8-8.97,20.48-9.7">
        <animate id="stroke4" attributeName="stroke-dashoffset" values="300;0" begin="stroke3.end" dur="1s" fill="freeze" />
    </path>
    <path d="M153.56,25.78l1.97-3.25c.15,2.18.3,4.36.45,6.54,3.81-2.1,7.62-4.21,11.42-6.31-1.85.5-1.24,3.7.61,4.21s3.72-.71,5.1-2.04,2.72-2.91,4.58-3.36c2.72-.66,5.69,1.95,5.39,4.73s-3.74,4.7-6.26,3.49c12.71-1.67,23.6-12.68,25.12-25.41-4.46,7.62-8.04,15.77-10.64,24.21,3.23-2.57,6.45-5.13,9.68-7.7.1,2.73.19,5.45.29,8.18,4.64-.28,8.98-3.43,10.69-7.75.31,2.29.62,4.58.92,6.87,5.31-1.21,10.44-3.18,15.2-5.84-1.46,2.75-2.91,5.49-4.37,8.24l11.09-11.61,2.67,11.46c2.35-2.74,4.69-5.48,7.04-8.22-1.51,3.91,3.82,7.61,7.82,6.37s6.46-5.16,8.55-8.79c-1.11,3.01-2.23,6.02-3.34,9.04,3.06-.25,5.98-1.82,7.9-4.21">
        <animate id="stroke5" attributeName="stroke-dashoffset" values="300;0" begin="stroke4.end" dur="2.5s" fill="freeze" />
    </path>
    <path d="M220.98,9.92c-1.68.17-3.15,1.57-3.4,3.23">
        <animate id="stroke6" attributeName="stroke-dashoffset" values="300;0" begin="stroke5.end" dur="0.5s" fill="freeze" />
    </path>
    <path d="M264.77,10.68l-3.31,3.31">
        <animate id="stroke7" attributeName="stroke-dashoffset" values="300;0" begin="stroke6.end" dur="0.5s" fill="freeze" />
    </path>
  </g>
</svg>